<svg width="15" height="16" viewBox="0 0 15 16" fill="none" xmlns="http://www.w3.org/2000/svg">
<path d="M2.5 11H12.5C12.5253 11 12.5427 11.0032 12.5566 11.0088L12.5918 11.0332C12.6027 11.0441 12.6117 11.0546 12.6172 11.0684L12.625 11.124C12.6249 11.1494 12.622 11.1673 12.6162 11.1816L12.5898 11.2188C12.5798 11.2289 12.5704 11.2369 12.5576 11.2422L12.502 11.25H2.5C2.47446 11.25 2.45709 11.2468 2.44336 11.2412L2.40918 11.2168C2.39826 11.2058 2.38953 11.1956 2.38379 11.1816L2.375 11.124C2.37494 11.0993 2.37725 11.0819 2.38281 11.0684L2.4082 11.0342C2.43107 11.0114 2.45072 11 2.5 11ZM2.5 7.875H12.5C12.5507 7.875 12.5701 7.88662 12.5918 7.9082C12.6027 7.91915 12.6117 7.92957 12.6172 7.94336L12.625 7.99902C12.6248 8.04995 12.6125 8.07092 12.5898 8.09375C12.5798 8.10385 12.5704 8.11191 12.5576 8.11719L12.502 8.125H2.5C2.47446 8.125 2.45709 8.12184 2.44336 8.11621L2.40918 8.0918C2.39826 8.08082 2.38953 8.07058 2.38379 8.05664L2.375 7.99902C2.37494 7.97431 2.37725 7.95692 2.38281 7.94336L2.4082 7.90918C2.43107 7.88642 2.45072 7.875 2.5 7.875ZM2.5 4.75H12.5C12.5253 4.75 12.5427 4.75318 12.5566 4.75879L12.5918 4.7832C12.6027 4.79415 12.6117 4.80457 12.6172 4.81836L12.625 4.87402C12.6249 4.89943 12.622 4.91731 12.6162 4.93164L12.5898 4.96875C12.5798 4.97885 12.5704 4.98691 12.5576 4.99219L12.502 5H2.5C2.47446 5 2.45709 4.99684 2.44336 4.99121L2.40918 4.9668C2.39826 4.95582 2.38953 4.94558 2.38379 4.93164L2.375 4.87402C2.37494 4.84931 2.37725 4.83192 2.38281 4.81836L2.4082 4.78418C2.43107 4.76142 2.45072 4.75 2.5 4.75Z" fill="white" stroke="#E6B2BA"/>
</svg>
